<mxfile host="www.draw.io" modified="2019-10-24T18:03:27.253Z" agent="Mozilla/5.0 (Windows NT 10.0; Win64; x64) AppleWebKit/537.36 (KHTML, like Gecko) Chrome/77.0.3865.90 Safari/537.36" etag="JaMHbwtxwRA9gOr12kMF" version="12.1.4" type="github" pages="1">
  <diagram id="WyztXBnFhIgyxmyer4uQ" name="Page-1">
    <mxGraphModel dx="2591" dy="713" grid="1" gridSize="10" guides="1" tooltips="1" connect="1" arrows="1" fold="1" page="1" pageScale="1" pageWidth="1169" pageHeight="827" math="0" shadow="0">
      <root>
        <mxCell id="0"/>
        <mxCell id="1" parent="0"/>
        <mxCell id="GVz599X6wvshu0MyRDAH-5" value="" style="shape=image;html=1;verticalAlign=top;verticalLabelPosition=bottom;labelBackgroundColor=#ffffff;imageAspect=0;aspect=fixed;image=https://cdn0.iconfinder.com/data/icons/containers/128/palet02.png" parent="1" vertex="1">
          <mxGeometry x="-1140" y="159.5" width="128" height="128" as="geometry"/>
        </mxCell>
        <mxCell id="GVz599X6wvshu0MyRDAH-10" value="" style="shape=mxgraph.cisco.people.androgenous_person;html=1;dashed=0;fillColor=#036897;strokeColor=#ffffff;strokeWidth=2;verticalLabelPosition=bottom;verticalAlign=top" parent="1" vertex="1">
          <mxGeometry x="-649.5" y="167.5" width="99" height="110" as="geometry"/>
        </mxCell>
        <mxCell id="GVz599X6wvshu0MyRDAH-35" value="" style="edgeStyle=orthogonalEdgeStyle;shape=flexArrow;rounded=0;orthogonalLoop=1;jettySize=auto;html=1;" parent="1" edge="1">
          <mxGeometry relative="1" as="geometry">
            <mxPoint x="-495" y="550" as="sourcePoint"/>
            <mxPoint x="-245" y="550" as="targetPoint"/>
          </mxGeometry>
        </mxCell>
        <mxCell id="GVz599X6wvshu0MyRDAH-36" value="" style="edgeStyle=orthogonalEdgeStyle;shape=flexArrow;rounded=0;orthogonalLoop=1;jettySize=auto;html=1;" parent="1" edge="1">
          <mxGeometry relative="1" as="geometry">
            <mxPoint x="-534" y="222" as="sourcePoint"/>
            <mxPoint x="-448" y="222" as="targetPoint"/>
          </mxGeometry>
        </mxCell>
        <mxCell id="GVz599X6wvshu0MyRDAH-37" value="" style="shape=image;html=1;verticalAlign=top;verticalLabelPosition=bottom;labelBackgroundColor=#ffffff;imageAspect=0;aspect=fixed;image=https://cdn0.iconfinder.com/data/icons/containers/128/palet02.png" parent="1" vertex="1">
          <mxGeometry x="-1140" y="472.5" width="128" height="128" as="geometry"/>
        </mxCell>
        <mxCell id="GVz599X6wvshu0MyRDAH-39" value="" style="edgeStyle=orthogonalEdgeStyle;shape=flexArrow;rounded=0;orthogonalLoop=1;jettySize=auto;html=1;" parent="1" edge="1" target="_klmYtudn7yM4nyGG53k-1">
          <mxGeometry relative="1" as="geometry">
            <mxPoint x="-830" y="232" as="sourcePoint"/>
            <mxPoint x="-750" y="232" as="targetPoint"/>
          </mxGeometry>
        </mxCell>
        <mxCell id="GVz599X6wvshu0MyRDAH-41" value="&lt;font style=&quot;font-size: 14px&quot;&gt;&lt;b&gt;挑選料件確認標籤上的資訊,打開Excel找到對應資訊&lt;br&gt;進行庫存修改後紀錄。&lt;br&gt;&lt;/b&gt;&lt;/font&gt;" style="text;html=1;resizable=0;points=[];autosize=1;align=left;verticalAlign=top;spacingTop=-4;" parent="1" vertex="1">
          <mxGeometry x="-520" y="238.5" width="360" height="30" as="geometry"/>
        </mxCell>
        <mxCell id="GVz599X6wvshu0MyRDAH-46" value="&lt;b style=&quot;font-size: 14px&quot;&gt;挑選料件掃描標籤上的資訊,IMAS自動找到對應資訊&lt;br&gt;執行出庫後紀錄。&lt;/b&gt;" style="text;html=1;resizable=0;points=[];autosize=1;align=left;verticalAlign=top;spacingTop=-4;" parent="1" vertex="1">
          <mxGeometry x="-555" y="590.5" width="350" height="30" as="geometry"/>
        </mxCell>
        <mxCell id="_klmYtudn7yM4nyGG53k-1" value="" style="shape=image;html=1;verticalAlign=top;verticalLabelPosition=bottom;labelBackgroundColor=#ffffff;imageAspect=0;aspect=fixed;image=https://cdn4.iconfinder.com/data/icons/logos-and-brands/512/119_Excel_logo_logos-128.png" vertex="1" parent="1">
          <mxGeometry x="-800" y="97" width="100" height="100" as="geometry"/>
        </mxCell>
        <mxCell id="_klmYtudn7yM4nyGG53k-2" value="" style="shape=mxgraph.cisco.people.androgenous_person;html=1;dashed=0;fillColor=#036897;strokeColor=#ffffff;strokeWidth=2;verticalLabelPosition=bottom;verticalAlign=top" vertex="1" parent="1">
          <mxGeometry x="-934" y="168" width="99" height="110" as="geometry"/>
        </mxCell>
        <mxCell id="_klmYtudn7yM4nyGG53k-4" value="" style="shape=mxgraph.cisco.people.androgenous_person;html=1;dashed=0;fillColor=#036897;strokeColor=#ffffff;strokeWidth=2;verticalLabelPosition=bottom;verticalAlign=top" vertex="1" parent="1">
          <mxGeometry x="-940" y="466.5" width="99" height="110" as="geometry"/>
        </mxCell>
        <mxCell id="_klmYtudn7yM4nyGG53k-5" value="&lt;h1&gt;&lt;font style=&quot;font-size: 20px&quot;&gt;As-Is&lt;/font&gt;&lt;/h1&gt;" style="text;html=1;resizable=0;points=[];autosize=1;align=left;verticalAlign=top;spacingTop=-4;" vertex="1" parent="1">
          <mxGeometry x="-1160" y="30" width="60" height="50" as="geometry"/>
        </mxCell>
        <mxCell id="_klmYtudn7yM4nyGG53k-7" value="&lt;h1&gt;&lt;font style=&quot;font-size: 20px&quot;&gt;To-Be&lt;/font&gt;&lt;/h1&gt;" style="text;html=1;resizable=0;points=[];autosize=1;align=left;verticalAlign=top;spacingTop=-4;" vertex="1" parent="1">
          <mxGeometry x="-1160" y="340" width="70" height="50" as="geometry"/>
        </mxCell>
        <mxCell id="GVz599X6wvshu0MyRDAH-24" value="" style="shape=image;html=1;verticalAlign=top;verticalLabelPosition=bottom;labelBackgroundColor=#ffffff;imageAspect=0;aspect=fixed;image=https://cdn2.iconfinder.com/data/icons/mobile-and-internet-business/285/qr_code-128.png;strokeColor=#333333;strokeWidth=3;fillColor=#036897;" parent="1" vertex="1">
          <mxGeometry x="-1030" y="486" width="71" height="71" as="geometry"/>
        </mxCell>
        <mxCell id="_klmYtudn7yM4nyGG53k-8" value="" style="shape=image;html=1;verticalAlign=top;verticalLabelPosition=bottom;labelBackgroundColor=#ffffff;imageAspect=0;aspect=fixed;image=https://cdn0.iconfinder.com/data/icons/business-and-education-1/512/143_keyboard_interface_type_typing-128.png" vertex="1" parent="1">
          <mxGeometry x="-1030" y="146.5" width="86" height="86" as="geometry"/>
        </mxCell>
        <mxCell id="_klmYtudn7yM4nyGG53k-9" value="" style="verticalLabelPosition=bottom;html=1;verticalAlign=top;strokeWidth=1;align=center;outlineConnect=0;dashed=0;outlineConnect=0;shape=mxgraph.aws3d.simpleDb2;fillColor=#ECECEC;strokeColor=#5E5E5E;aspect=fixed;" vertex="1" parent="1">
          <mxGeometry x="-803.5" y="399.5" width="107" height="113" as="geometry"/>
        </mxCell>
        <mxCell id="_klmYtudn7yM4nyGG53k-10" value="" style="edgeStyle=orthogonalEdgeStyle;shape=flexArrow;rounded=0;orthogonalLoop=1;jettySize=auto;html=1;" edge="1" parent="1">
          <mxGeometry relative="1" as="geometry">
            <mxPoint x="-835" y="539" as="sourcePoint"/>
            <mxPoint x="-755" y="504" as="targetPoint"/>
          </mxGeometry>
        </mxCell>
        <mxCell id="_klmYtudn7yM4nyGG53k-11" value="&lt;font style=&quot;font-size: 16px&quot;&gt;&lt;b&gt;IMAS將資料&lt;br&gt;存入DB&lt;/b&gt;&lt;/font&gt;" style="text;html=1;resizable=0;points=[];autosize=1;align=left;verticalAlign=top;spacingTop=-4;" vertex="1" parent="1">
          <mxGeometry x="-898" y="436.5" width="110" height="30" as="geometry"/>
        </mxCell>
        <mxCell id="_klmYtudn7yM4nyGG53k-12" value="&lt;font style=&quot;font-size: 16px&quot;&gt;&lt;b&gt;Excel紀錄資料&lt;/b&gt;&lt;/font&gt;" style="text;html=1;resizable=0;points=[];autosize=1;align=left;verticalAlign=top;spacingTop=-4;" vertex="1" parent="1">
          <mxGeometry x="-900" y="157.5" width="130" height="20" as="geometry"/>
        </mxCell>
        <mxCell id="_klmYtudn7yM4nyGG53k-13" value="&lt;font style=&quot;font-size: 16px&quot;&gt;&lt;b&gt;透過DN掃描實物標籤收貨&lt;/b&gt;&lt;/font&gt;" style="text;html=1;resizable=0;points=[];autosize=1;align=left;verticalAlign=top;spacingTop=-4;" vertex="1" parent="1">
          <mxGeometry x="-1117" y="436" width="210" height="20" as="geometry"/>
        </mxCell>
        <mxCell id="_klmYtudn7yM4nyGG53k-14" value="&lt;font style=&quot;font-size: 16px&quot;&gt;&lt;b&gt;透過DN資料，手動key in入Excel&lt;/b&gt;&lt;/font&gt;" style="text;html=1;resizable=0;points=[];autosize=1;align=left;verticalAlign=top;spacingTop=-4;" vertex="1" parent="1">
          <mxGeometry x="-1117" y="117" width="260" height="20" as="geometry"/>
        </mxCell>
        <mxCell id="_klmYtudn7yM4nyGG53k-17" value="" style="endArrow=open;endFill=1;endSize=12;html=1;" edge="1" parent="1">
          <mxGeometry width="160" relative="1" as="geometry">
            <mxPoint x="-1080" y="80" as="sourcePoint"/>
            <mxPoint x="-760" y="80" as="targetPoint"/>
          </mxGeometry>
        </mxCell>
        <mxCell id="_klmYtudn7yM4nyGG53k-18" value="" style="endArrow=open;endFill=1;endSize=12;html=1;" edge="1" parent="1">
          <mxGeometry width="160" relative="1" as="geometry">
            <mxPoint x="-629" y="80.5" as="sourcePoint"/>
            <mxPoint x="-309" y="80.5" as="targetPoint"/>
          </mxGeometry>
        </mxCell>
        <mxCell id="_klmYtudn7yM4nyGG53k-19" value="&lt;font style=&quot;font-size: 20px&quot;&gt;入庫&lt;br&gt;&lt;/font&gt;" style="text;html=1;resizable=0;points=[];autosize=1;align=left;verticalAlign=top;spacingTop=-4;" vertex="1" parent="1">
          <mxGeometry x="-980" y="45" width="60" height="20" as="geometry"/>
        </mxCell>
        <mxCell id="_klmYtudn7yM4nyGG53k-24" value="&lt;font style=&quot;font-size: 20px&quot;&gt;出庫&lt;br&gt;&lt;/font&gt;" style="text;html=1;resizable=0;points=[];autosize=1;align=left;verticalAlign=top;spacingTop=-4;" vertex="1" parent="1">
          <mxGeometry x="-500" y="45" width="60" height="20" as="geometry"/>
        </mxCell>
        <mxCell id="_klmYtudn7yM4nyGG53k-25" value="" style="shape=mxgraph.cisco.people.androgenous_person;html=1;dashed=0;fillColor=#036897;strokeColor=#ffffff;strokeWidth=2;verticalLabelPosition=bottom;verticalAlign=top" vertex="1" parent="1">
          <mxGeometry x="-649.5" y="466.5" width="99" height="110" as="geometry"/>
        </mxCell>
        <mxCell id="_klmYtudn7yM4nyGG53k-26" value="" style="shape=image;html=1;verticalAlign=top;verticalLabelPosition=bottom;labelBackgroundColor=#ffffff;imageAspect=0;aspect=fixed;image=https://cdn4.iconfinder.com/data/icons/logos-and-brands/512/119_Excel_logo_logos-128.png" vertex="1" parent="1">
          <mxGeometry x="-436" y="138.5" width="100" height="100" as="geometry"/>
        </mxCell>
        <mxCell id="_klmYtudn7yM4nyGG53k-27" value="操做IMAS" style="text;html=1;resizable=0;points=[];autosize=1;align=left;verticalAlign=top;spacingTop=-4;" vertex="1" parent="1">
          <mxGeometry x="-380" y="426" width="70" height="20" as="geometry"/>
        </mxCell>
        <mxCell id="_klmYtudn7yM4nyGG53k-30" value="" style="endArrow=open;endFill=1;endSize=12;html=1;" edge="1" parent="1">
          <mxGeometry width="160" relative="1" as="geometry">
            <mxPoint x="-1076" y="376" as="sourcePoint"/>
            <mxPoint x="-756" y="376" as="targetPoint"/>
          </mxGeometry>
        </mxCell>
        <mxCell id="_klmYtudn7yM4nyGG53k-31" value="" style="endArrow=open;endFill=1;endSize=12;html=1;" edge="1" parent="1">
          <mxGeometry width="160" relative="1" as="geometry">
            <mxPoint x="-625" y="376.5" as="sourcePoint"/>
            <mxPoint x="-305" y="376.5" as="targetPoint"/>
          </mxGeometry>
        </mxCell>
        <mxCell id="_klmYtudn7yM4nyGG53k-32" value="&lt;font style=&quot;font-size: 20px&quot;&gt;入庫&lt;br&gt;&lt;/font&gt;" style="text;html=1;resizable=0;points=[];autosize=1;align=left;verticalAlign=top;spacingTop=-4;" vertex="1" parent="1">
          <mxGeometry x="-976" y="341" width="60" height="20" as="geometry"/>
        </mxCell>
        <mxCell id="_klmYtudn7yM4nyGG53k-33" value="&lt;font style=&quot;font-size: 20px&quot;&gt;出庫&lt;br&gt;&lt;/font&gt;" style="text;html=1;resizable=0;points=[];autosize=1;align=left;verticalAlign=top;spacingTop=-4;" vertex="1" parent="1">
          <mxGeometry x="-496" y="341" width="60" height="20" as="geometry"/>
        </mxCell>
        <mxCell id="_klmYtudn7yM4nyGG53k-34" value="" style="html=1;verticalLabelPosition=bottom;align=center;labelBackgroundColor=#ffffff;verticalAlign=top;strokeWidth=2;strokeColor=#333333;fillColor=#ffffff;shadow=0;dashed=0;shape=mxgraph.ios7.icons.eye;" vertex="1" parent="1">
          <mxGeometry x="-530" y="97" width="60" height="27" as="geometry"/>
        </mxCell>
        <mxCell id="_klmYtudn7yM4nyGG53k-40" value="" style="edgeStyle=orthogonalEdgeStyle;shape=flexArrow;rounded=0;orthogonalLoop=1;jettySize=auto;html=1;" edge="1" parent="1">
          <mxGeometry relative="1" as="geometry">
            <mxPoint x="-330" y="223" as="sourcePoint"/>
            <mxPoint x="-244" y="223" as="targetPoint"/>
          </mxGeometry>
        </mxCell>
        <mxCell id="_klmYtudn7yM4nyGG53k-44" value="" style="shape=image;html=1;verticalAlign=top;verticalLabelPosition=bottom;labelBackgroundColor=#ffffff;imageAspect=0;aspect=fixed;image=https://cdn2.iconfinder.com/data/icons/fatcow/32x32/barcode_2d.png;strokeColor=#333333;" vertex="1" parent="1">
          <mxGeometry x="-525" y="137" width="50" height="50" as="geometry"/>
        </mxCell>
        <mxCell id="_klmYtudn7yM4nyGG53k-45" value="" style="shape=image;html=1;verticalAlign=top;verticalLabelPosition=bottom;labelBackgroundColor=#ffffff;imageAspect=0;aspect=fixed;image=https://cdn2.iconfinder.com/data/icons/mobile-and-internet-business/285/qr_code-128.png;strokeColor=#333333;strokeWidth=3;fillColor=#036897;" vertex="1" parent="1">
          <mxGeometry x="-530" y="456" width="71" height="71" as="geometry"/>
        </mxCell>
      </root>
    </mxGraphModel>
  </diagram>
</mxfile>
